<svg xmlns="http://www.w3.org/2000/svg" xmlns:xlink="http://www.w3.org/1999/xlink" fill="none" version="1.1" width="24" height="24" viewBox="0 0 24 24"><g><g><g><g><path d="M12,21.64999990463257C11.69,21.64999990463257,11.39,21.60999990463257,11.14,21.51999990463257C7.32,20.209999904632568,1.25,15.55999990463257,1.25,8.689999904632568C1.25,5.189999904632568,4.08,2.3499999046325684,7.56,2.3499999046325684C9.25,2.3499999046325684,10.83,3.0099999046325685,12,4.189999904632568C13.17,3.0099999046325685,14.75,2.3499999046325684,16.439999999999998,2.3499999046325684C19.92,2.3499999046325684,22.75,5.199999904632568,22.75,8.689999904632568C22.75,15.569999904632569,16.68,20.209999904632568,12.86,21.51999990463257C12.61,21.60999990463257,12.31,21.64999990463257,12,21.64999990463257C12,21.64999990463257,12,21.64999990463257,12,21.64999990463257ZM7.56,3.8499999046325684C4.91,3.8499999046325684,2.75,6.019999904632568,2.75,8.689999904632568C2.75,15.519999904632568,9.32,19.319999904632567,11.63,20.10999990463257C11.81,20.16999990463257,12.2,20.16999990463257,12.38,20.10999990463257C14.68,19.319999904632567,21.26,15.529999904632568,21.26,8.689999904632568C21.26,6.019999904632568,19.1,3.8499999046325684,16.45,3.8499999046325684C14.93,3.8499999046325684,13.52,4.559999904632568,12.61,5.789999904632568C12.33,6.169999904632569,11.69,6.169999904632569,11.41,5.789999904632568C10.48,4.5499999046325685,9.08,3.8499999046325684,7.56,3.8499999046325684C7.56,3.8499999046325684,7.56,3.8499999046325684,7.56,3.8499999046325684Z" fill="#292D32" fill-opacity="1"/></g><g style="opacity:0;"></g></g></g></g></svg>