<svg xmlns="http://www.w3.org/2000/svg" xmlns:xlink="http://www.w3.org/1999/xlink" fill="none" version="1.1" width="24" height="24" viewBox="0 0 24 24"><g><g><g><g><path d="M16.439999999999998,3.0999999046325684C14.63,3.0999999046325684,13.01,3.9799999046325683,12,5.329999904632569C10.99,3.9799999046325683,9.370000000000001,3.0999999046325684,7.56,3.0999999046325684C4.49,3.0999999046325684,2,5.599999904632568,2,8.689999904632568C2,9.87999990463257,2.19,10.979999904632567,2.52,11.999999904632569C4.1,16.999999904632567,8.969999999999999,19.98999990463257,11.38,20.80999990463257C11.72,20.929999904632567,12.28,20.929999904632567,12.62,20.80999990463257C15.03,19.98999990463257,19.9,16.999999904632567,21.48,11.999999904632569C21.81,10.979999904632567,22,9.87999990463257,22,8.689999904632568C22,5.599999904632568,19.51,3.0999999046325684,16.439999999999998,3.0999999046325684C16.439999999999998,3.0999999046325684,16.439999999999998,3.0999999046325684,16.439999999999998,3.0999999046325684Z" fill="#292D32" fill-opacity="1"/></g><g transform="matrix(-1,0,0,-1,48,47.999999046325684)" style="opacity:0;"></g></g></g></g></svg>