<svg xmlns="http://www.w3.org/2000/svg" xmlns:xlink="http://www.w3.org/1999/xlink" fill="none" version="1.1" width="24" height="24" viewBox="0 0 24 24"><g><g><g><g><path d="M3,6.25C2.58578601,6.25,2.25,6.58578601,2.25,7C2.25,7.414214,2.58578601,7.75,3,7.75C3,7.75,3,6.25,3,6.25C3,6.25,3,6.25,3,6.25ZM21,7.75C21.4142,7.75,21.75,7.414214,21.75,7C21.75,6.58578601,21.4142,6.25,21,6.25C21,6.25,21,7.75,21,7.75C21,7.75,21,7.75,21,7.75ZM3,7.75C3,7.75,21,7.75,21,7.75C21,7.75,21,6.25,21,6.25C21,6.25,3,6.25,3,6.25C3,6.25,3,7.75,3,7.75C3,7.75,3,7.75,3,7.75Z" fill="#292D32" fill-opacity="1"/></g><g><path d="M6,11.25C5.58578601,11.25,5.25,11.58578601,5.25,12C5.25,12.414214,5.58578601,12.75,6,12.75C6,12.75,6,11.25,6,11.25C6,11.25,6,11.25,6,11.25ZM18,12.75C18.4142,12.75,18.75,12.414214,18.75,12C18.75,11.58578601,18.4142,11.25,18,11.25C18,11.25,18,12.75,18,12.75C18,12.75,18,12.75,18,12.75ZM6,12.75C6,12.75,18,12.75,18,12.75C18,12.75,18,11.25,18,11.25C18,11.25,6,11.25,6,11.25C6,11.25,6,12.75,6,12.75C6,12.75,6,12.75,6,12.75Z" fill="#292D32" fill-opacity="1"/></g><g><path d="M10,16.25C9.58578601,16.25,9.25,16.58578601,9.25,17C9.25,17.414214,9.58578601,17.75,10,17.75C10,17.75,10,16.25,10,16.25C10,16.25,10,16.25,10,16.25ZM14,17.75C14.4142098,17.75,14.75,17.414214,14.75,17C14.75,16.58578601,14.4142098,16.25,14,16.25C14,16.25,14,17.75,14,17.75C14,17.75,14,17.75,14,17.75ZM10,17.75C10,17.75,14,17.75,14,17.75C14,17.75,14,16.25,14,16.25C14,16.25,10,16.25,10,16.25C10,16.25,10,17.75,10,17.75C10,17.75,10,17.75,10,17.75Z" fill="#292D32" fill-opacity="1"/></g><g style="opacity:0;"></g></g></g></g></svg>