<svg xmlns="http://www.w3.org/2000/svg" xmlns:xlink="http://www.w3.org/1999/xlink" fill="none" version="1.1" width="24" height="24" viewBox="0 0 24 24"><g><g><g><g><path d="M21.52995564842224,15.930015835189819C21.36995564842224,15.660015835189819,20.919955648422242,15.24001583518982,19.79995564842224,15.440015835189818C19.17995564842224,15.55001583518982,18.54995564842224,15.600015835189819,17.919955648422242,15.57001583518982C15.589955648422242,15.47001583518982,13.47995564842224,14.40001583518982,12.009995648422242,12.750015835189819C10.709995648422241,11.299995835189819,9.909995648422242,9.409995835189818,9.899995648422241,7.369995835189819C9.899995648422241,6.229995835189819,10.119995648422242,5.129995835189819,10.56999564842224,4.08999583518982C11.009995648422242,3.0799958351898193,10.699995648422242,2.549999835189819,10.479995648422241,2.3299998351898195C10.249995648422242,2.0999999351898193,9.709995648422241,1.7799998351898194,8.649995648422241,2.219999835189819C4.559995648422241,3.939995835189819,2.0299996484222413,8.03999583518982,2.3299998484222413,12.430015835189819C2.629999648422241,16.56001583518982,5.529995648422242,20.09001583518982,9.369995648422242,21.42001583518982C10.289995648422241,21.74001583518982,11.259995648422242,21.93001583518982,12.259995648422242,21.97001583518982C12.419955648422242,21.980015835189818,12.57995564842224,21.99001583518982,12.73995564842224,21.99001583518982C16.08995564842224,21.99001583518982,19.22995564842224,20.41001583518982,21.20995564842224,17.72001583518982C21.879955648422243,16.79001583518982,21.69995564842224,16.20001583518982,21.52995564842224,15.930015835189819C21.52995564842224,15.930015835189819,21.52995564842224,15.930015835189819,21.52995564842224,15.930015835189819Z" fill="#292D32" fill-opacity="1"/></g><g transform="matrix(-1,0,0,-1,47.99999952316284,47.99999952316284)" style="opacity:0;"></g></g></g></g></svg>