<svg xmlns="http://www.w3.org/2000/svg" xmlns:xlink="http://www.w3.org/1999/xlink" fill="none" version="1.1" width="24" height="24" viewBox="0 0 24 24"><g><g><g><g><path d="M14.519105493164062,2.4586960463256835C14.220205493164062,2.171991946325684,13.745405493164062,2.1819219463256836,13.458705493164063,2.4808750463256835C13.172005493164063,2.7798290463256836,13.181905493164063,3.2545990463256835,13.480905493164062,3.5412990463256833C13.480905493164062,3.5412990463256833,14.519105493164062,2.4586960463256835,14.519105493164062,2.4586960463256835C14.519105493164062,2.4586960463256835,14.519105493164062,2.4586960463256835,14.519105493164062,2.4586960463256835ZM16.440005493164062,5.340029046325684C16.440005493164062,5.340029046325684,16.438105493164063,6.090019046325684,16.438105493164063,6.090019046325684C16.744705493164062,6.090799046325683,17.02080549316406,5.904929046325684,17.13550549316406,5.620649046325683C17.250205493164064,5.336369046325684,17.180405493164063,5.010909046325684,16.95910549316406,4.798719046325683C16.95910549316406,4.798719046325683,16.440005493164062,5.340029046325684,16.440005493164062,5.340029046325684C16.440005493164062,5.340029046325684,16.440005493164062,5.340029046325684,16.440005493164062,5.340029046325684ZM8.490005493164062,5.3200090463256835C8.490005493164062,5.3200090463256835,8.491895493164062,4.5700090463256835,8.491895493164062,4.5700090463256835C8.491895493164062,4.5700090463256835,8.490005493164062,4.5700090463256835,8.490005493164062,4.5700090463256835C8.490005493164062,4.5700090463256835,8.490005493164062,5.3200090463256835,8.490005493164062,5.3200090463256835C8.490005493164062,5.3200090463256835,8.490005493164062,5.3200090463256835,8.490005493164062,5.3200090463256835ZM3.3696654931640624,16.970299046325685C3.6625554931640627,17.26319904632568,4.1374354931640624,17.26319904632568,4.430325493164062,16.970299046325685C4.723215493164062,16.677399046325682,4.723215493164062,16.202599046325684,4.430325493164062,15.909699046325684C4.430325493164062,15.909699046325684,3.3696654931640624,16.970299046325685,3.3696654931640624,16.970299046325685C3.3696654931640624,16.970299046325685,3.3696654931640624,16.970299046325685,3.3696654931640624,16.970299046325685ZM13.480905493164062,3.5412990463256833C13.480905493164062,3.5412990463256833,15.920905493164062,5.881329046325684,15.920905493164062,5.881329046325684C15.920905493164062,5.881329046325684,16.95910549316406,4.798719046325683,16.95910549316406,4.798719046325683C16.95910549316406,4.798719046325683,14.519105493164062,2.4586960463256835,14.519105493164062,2.4586960463256835C14.519105493164062,2.4586960463256835,13.480905493164062,3.5412990463256833,13.480905493164062,3.5412990463256833C13.480905493164062,3.5412990463256833,13.480905493164062,3.5412990463256833,13.480905493164062,3.5412990463256833ZM16.441905493164064,4.590029046325684C16.441905493164064,4.590029046325684,8.491895493164062,4.5700090463256835,8.491895493164062,4.5700090463256835C8.491895493164062,4.5700090463256835,8.488115493164063,6.069999046325684,8.488115493164063,6.069999046325684C8.488115493164063,6.069999046325684,16.438105493164063,6.090019046325684,16.438105493164063,6.090019046325684C16.438105493164063,6.090019046325684,16.441905493164064,4.590029046325684,16.441905493164064,4.590029046325684C16.441905493164064,4.590029046325684,16.441905493164064,4.590029046325684,16.441905493164064,4.590029046325684ZM8.490005493164062,4.5700090463256835C4.504295493164062,4.5700090463256835,1.2400054931640625,7.837319046325684,1.2400054931640625,11.840029046325684C1.2400054931640625,11.840029046325684,2.7400054931640625,11.840029046325684,2.7400054931640625,11.840029046325684C2.7400054931640625,8.662739046325683,5.335715493164063,6.0700090463256835,8.490005493164062,6.0700090463256835C8.490005493164062,6.0700090463256835,8.490005493164062,4.5700090463256835,8.490005493164062,4.5700090463256835C8.490005493164062,4.5700090463256835,8.490005493164062,4.5700090463256835,8.490005493164062,4.5700090463256835ZM1.2400054931640625,11.840029046325684C1.2400054931640625,13.837599046325684,2.0552844931640624,15.655999046325684,3.3696654931640624,16.970299046325685C3.3696654931640624,16.970299046325685,4.430325493164062,15.909699046325684,4.430325493164062,15.909699046325684C3.3847054931640623,14.864099046325684,2.7400054931640625,13.422399046325683,2.7400054931640625,11.840029046325684C2.7400054931640625,11.840029046325684,1.2400054931640625,11.840029046325684,1.2400054931640625,11.840029046325684C1.2400054931640625,11.840029046325684,1.2400054931640625,11.840029046325684,1.2400054931640625,11.840029046325684Z" fill="#292D32" fill-opacity="1"/></g><g><path d="M9.480881809387206,21.541298035430906C9.779831809387208,21.82799803543091,10.254601809387207,21.818098035430907,10.541311809387206,21.519098035430908C10.828011809387206,21.220198035430908,10.818081809387207,20.74539803543091,10.519131809387208,20.458698035430906C10.519131809387208,20.458698035430906,9.480881809387206,21.541298035430906,9.480881809387206,21.541298035430906C9.480881809387206,21.541298035430906,9.480881809387206,21.541298035430906,9.480881809387206,21.541298035430906ZM7.559997809387207,18.65999803543091C7.559997809387207,18.65999803543091,7.561885809387207,17.90999803543091,7.561885809387207,17.90999803543091C7.255339809387207,17.909198035430908,6.979178809387207,18.095098035430908,6.864477309387207,18.379298035430907C6.749776309387207,18.66359803543091,6.819625339387207,18.989098035430906,7.040872809387207,19.20129803543091C7.040872809387207,19.20129803543091,7.559997809387207,18.65999803543091,7.559997809387207,18.65999803543091C7.559997809387207,18.65999803543091,7.559997809387207,18.65999803543091,7.559997809387207,18.65999803543091ZM15.510001809387207,18.679998035430906C15.510001809387207,18.679998035430906,15.508111809387207,19.429998035430906,15.508111809387207,19.429998035430906C15.508111809387207,19.429998035430906,15.510001809387207,19.429998035430906,15.510001809387207,19.429998035430906C15.510001809387207,19.429998035430906,15.510001809387207,18.679998035430906,15.510001809387207,18.679998035430906C15.510001809387207,18.679998035430906,15.510001809387207,18.679998035430906,15.510001809387207,18.679998035430906ZM20.630271809387207,7.029668035430908C20.337371809387207,6.736774835430908,19.862571809387205,6.736774835430908,19.56967180938721,7.029668035430908C19.276771809387206,7.322561035430908,19.276771809387206,7.797435035430908,19.56967180938721,8.090328035430908C19.56967180938721,8.090328035430908,20.630271809387207,7.029668035430908,20.630271809387207,7.029668035430908C20.630271809387207,7.029668035430908,20.630271809387207,7.029668035430908,20.630271809387207,7.029668035430908ZM10.519131809387208,20.458698035430906C10.519131809387208,20.458698035430906,8.079121809387207,18.11869803543091,8.079121809387207,18.11869803543091C8.079121809387207,18.11869803543091,7.040872809387207,19.20129803543091,7.040872809387207,19.20129803543091C7.040872809387207,19.20129803543091,9.480881809387206,21.541298035430906,9.480881809387206,21.541298035430906C9.480881809387206,21.541298035430906,10.519131809387208,20.458698035430906,10.519131809387208,20.458698035430906C10.519131809387208,20.458698035430906,10.519131809387208,20.458698035430906,10.519131809387208,20.458698035430906ZM7.558108809387207,19.40999803543091C7.558108809387207,19.40999803543091,15.508111809387207,19.429998035430906,15.508111809387207,19.429998035430906C15.508111809387207,19.429998035430906,15.511891809387206,17.929998035430906,15.511891809387206,17.929998035430906C15.511891809387206,17.929998035430906,7.561885809387207,17.90999803543091,7.561885809387207,17.90999803543091C7.561885809387207,17.90999803543091,7.558108809387207,19.40999803543091,7.558108809387207,19.40999803543091C7.558108809387207,19.40999803543091,7.558108809387207,19.40999803543091,7.558108809387207,19.40999803543091ZM15.510001809387207,19.429998035430906C19.495671809387208,19.429998035430906,22.759971809387206,16.16268803543091,22.759971809387206,12.159978035430909C22.759971809387206,12.159978035430909,21.259971809387206,12.159978035430909,21.259971809387206,12.159978035430909C21.259971809387206,15.337258035430908,18.66427180938721,17.929998035430906,15.510001809387207,17.929998035430906C15.510001809387207,17.929998035430906,15.510001809387207,19.429998035430906,15.510001809387207,19.429998035430906C15.510001809387207,19.429998035430906,15.510001809387207,19.429998035430906,15.510001809387207,19.429998035430906ZM22.759971809387206,12.159978035430909C22.759971809387206,10.162358035430909,21.94467180938721,8.344048035430909,20.630271809387207,7.029668035430908C20.630271809387207,7.029668035430908,19.56967180938721,8.090328035430908,19.56967180938721,8.090328035430908C20.61527180938721,9.135948035430909,21.259971809387206,10.577588035430908,21.259971809387206,12.159978035430909C21.259971809387206,12.159978035430909,22.759971809387206,12.159978035430909,22.759971809387206,12.159978035430909C22.759971809387206,12.159978035430909,22.759971809387206,12.159978035430909,22.759971809387206,12.159978035430909Z" fill="#292D32" fill-opacity="1"/></g><g><path d="M9,11.25C8.585786,11.25,8.25,11.585786,8.25,12C8.25,12.41421,8.585786,12.75,9,12.75C9,12.75,9,11.25,9,11.25C9,11.25,9,11.25,9,11.25ZM15,12.75C15.41421,12.75,15.75,12.41421,15.75,12C15.75,11.585786,15.41421,11.25,15,11.25C15,11.25,15,12.75,15,12.75C15,12.75,15,12.75,15,12.75ZM9,12.75C9,12.75,15,12.75,15,12.75C15,12.75,15,11.25,15,11.25C15,11.25,9,11.25,9,11.25C9,11.25,9,12.75,9,12.75C9,12.75,9,12.75,9,12.75Z" fill="#292D32" fill-opacity="1"/></g><g style="opacity:0;"></g></g></g></g></svg>