<svg xmlns="http://www.w3.org/2000/svg" xmlns:xlink="http://www.w3.org/1999/xlink" fill="none" version="1.1" width="24" height="24" viewBox="0 0 24 24"><g><g><g><g transform="matrix(-1,0,0,-1,47.99999952316284,47.99999809265137)" style="opacity:0;"></g><g><path d="M20.239999561309816,7.220002607116699C20.239999561309816,7.220002607116699,20.239999561309816,16.7899926071167,20.239999561309816,16.7899926071167C20.239999561309816,18.7499926071167,18.109999561309813,19.9799926071167,16.409999561309814,18.9999926071167C16.409999561309814,18.9999926071167,12.259999561309815,16.6099926071167,12.259999561309815,16.6099926071167C12.259999561309815,16.6099926071167,8.109999561309815,14.2100026071167,8.109999561309815,14.2100026071167C6.409999561309815,13.230002607116699,6.409999561309815,10.7800026071167,8.109999561309815,9.8000026071167C8.109999561309815,9.8000026071167,12.259999561309815,7.400002607116699,12.259999561309815,7.400002607116699C12.259999561309815,7.400002607116699,16.409999561309814,5.010000607116699,16.409999561309814,5.010000607116699C18.109999561309813,4.030000607116699,20.239999561309816,5.249999607116699,20.239999561309816,7.220002607116699C20.239999561309816,7.220002607116699,20.239999561309816,7.220002607116699,20.239999561309816,7.220002607116699Z" fill="#292D32" fill-opacity="1"/></g><g><path d="M3.759999990463257,18.930000171661376C3.3499999904632567,18.930000171661376,3.009999990463257,18.590000171661377,3.009999990463257,18.180000171661376C3.009999990463257,18.180000171661376,3.009999990463257,5.820000171661377,3.009999990463257,5.820000171661377C3.009999990463257,5.410000171661377,3.3499999904632567,5.070000171661377,3.759999990463257,5.070000171661377C4.169999990463257,5.070000171661377,4.509999990463257,5.410000171661377,4.509999990463257,5.820000171661377C4.509999990463257,5.820000171661377,4.509999990463257,18.180000171661376,4.509999990463257,18.180000171661376C4.509999990463257,18.590000171661377,4.169999990463257,18.930000171661376,3.759999990463257,18.930000171661376C3.759999990463257,18.930000171661376,3.759999990463257,18.930000171661376,3.759999990463257,18.930000171661376Z" fill="#292D32" fill-opacity="1"/></g></g></g></g></svg>