<svg xmlns="http://www.w3.org/2000/svg" xmlns:xlink="http://www.w3.org/1999/xlink" fill="none" version="1.1" width="24" height="24" viewBox="0 0 24 24"><g><g><g><g><g><path d="M16.409993600845336,19.000030723953245C16.409993600845336,19.000030723953245,16.784593600845337,18.350230723953246,16.784593600845337,18.350230723953246C16.784593600845337,18.350230723953246,16.784293600845338,18.35013072395325,16.784293600845338,18.35013072395325C16.784293600845338,18.35013072395325,16.409993600845336,19.000030723953245,16.409993600845336,19.000030723953245C16.409993600845336,19.000030723953245,16.409993600845336,19.000030723953245,16.409993600845336,19.000030723953245ZM12.260013600845337,16.610030723953248C12.260013600845337,16.610030723953248,11.884553600845337,17.259230723953245,11.884553600845337,17.259230723953245C11.884553600845337,17.259230723953245,11.885723600845337,17.259930723953246,11.885723600845337,17.259930723953246C11.885723600845337,17.259930723953246,12.260013600845337,16.610030723953248,12.260013600845337,16.610030723953248C12.260013600845337,16.610030723953248,12.260013600845337,16.610030723953248,12.260013600845337,16.610030723953248ZM8.109993600845337,14.209930723953248C8.109993600845337,14.209930723953248,8.485463600845337,13.560730723953247,8.485463600845337,13.560730723953247C8.485463600845337,13.560730723953247,8.484563600845338,13.560210723953247,8.484563600845338,13.560210723953247C8.484563600845338,13.560210723953247,8.109993600845337,14.209930723953248,8.109993600845337,14.209930723953248C8.109993600845337,14.209930723953248,8.109993600845337,14.209930723953248,8.109993600845337,14.209930723953248ZM8.109993600845337,9.799980723953247C8.109993600845337,9.799980723953247,8.484563600845338,10.449740723953248,8.484563600845338,10.449740723953248C8.484563600845338,10.449740723953248,8.485463600845337,10.449230723953246,8.485463600845337,10.449230723953246C8.485463600845337,10.449230723953246,8.109993600845337,9.799980723953247,8.109993600845337,9.799980723953247C8.109993600845337,9.799980723953247,8.109993600845337,9.799980723953247,8.109993600845337,9.799980723953247ZM12.260013600845337,7.399980723953247C12.260013600845337,7.399980723953247,11.885723600845337,6.750060723953247,11.885723600845337,6.750060723953247C11.885723600845337,6.750060723953247,11.884553600845337,6.750730723953247,11.884553600845337,6.750730723953247C11.884553600845337,6.750730723953247,12.260013600845337,7.399980723953247,12.260013600845337,7.399980723953247C12.260013600845337,7.399980723953247,12.260013600845337,7.399980723953247,12.260013600845337,7.399980723953247ZM16.409993600845336,5.010000723953247C16.409993600845336,5.010000723953247,16.784293600845338,5.659920723953247,16.784293600845338,5.659920723953247C16.784293600845338,5.659920723953247,16.784593600845337,5.659760723953247,16.784593600845337,5.659760723953247C16.784593600845337,5.659760723953247,16.409993600845336,5.010000723953247,16.409993600845336,5.010000723953247C16.409993600845336,5.010000723953247,16.409993600845336,5.010000723953247,16.409993600845336,5.010000723953247ZM19.489993600845338,7.219990723953247C19.489993600845338,7.219990723953247,19.489993600845338,16.790030723953247,19.489993600845338,16.790030723953247C19.489993600845338,16.790030723953247,20.989993600845338,16.790030723953247,20.989993600845338,16.790030723953247C20.989993600845338,16.790030723953247,20.989993600845338,7.219990723953247,20.989993600845338,7.219990723953247C20.989993600845338,7.219990723953247,19.489993600845338,7.219990723953247,19.489993600845338,7.219990723953247C19.489993600845338,7.219990723953247,19.489993600845338,7.219990723953247,19.489993600845338,7.219990723953247ZM19.489993600845338,16.790030723953247C19.489993600845338,18.17203072395325,17.985393600845335,19.04253072395325,16.784593600845337,18.350230723953246C16.784593600845337,18.350230723953246,16.035443600845337,19.649830723953247,16.035443600845337,19.649830723953247C18.234693600845336,20.91753072395325,20.989993600845338,19.328130723953247,20.989993600845338,16.790030723953247C20.989993600845338,16.790030723953247,19.489993600845338,16.790030723953247,19.489993600845338,16.790030723953247C19.489993600845338,16.790030723953247,19.489993600845338,16.790030723953247,19.489993600845338,16.790030723953247ZM16.784293600845338,18.35013072395325C16.784293600845338,18.35013072395325,12.634313600845337,15.960130723953247,12.634313600845337,15.960130723953247C12.634313600845337,15.960130723953247,11.885723600845337,17.259930723953246,11.885723600845337,17.259930723953246C11.885723600845337,17.259930723953246,16.035713600845337,19.649930723953247,16.035713600845337,19.649930723953247C16.035713600845337,19.649930723953247,16.784293600845338,18.35013072395325,16.784293600845338,18.35013072395325C16.784293600845338,18.35013072395325,16.784293600845338,18.35013072395325,16.784293600845338,18.35013072395325ZM12.635483600845337,15.960730723953247C12.635483600845337,15.960730723953247,8.485463600845337,13.560730723953247,8.485463600845337,13.560730723953247C8.485463600845337,13.560730723953247,7.734523600845337,14.859230723953248,7.734523600845337,14.859230723953248C7.734523600845337,14.859230723953248,11.884553600845337,17.259230723953245,11.884553600845337,17.259230723953245C11.884553600845337,17.259230723953245,12.635483600845337,15.960730723953247,12.635483600845337,15.960730723953247C12.635483600845337,15.960730723953247,12.635483600845337,15.960730723953247,12.635483600845337,15.960730723953247ZM8.484563600845338,13.560210723953247C7.285133600845337,12.868780723953247,7.285133600845337,11.141180723953248,8.484563600845338,10.449740723953248C8.484563600845338,10.449740723953248,7.735423600845337,9.150210723953247,7.735423600845337,9.150210723953247C5.534851600845337,10.418780723953248,5.534851600845337,13.591180723953247,7.735423600845337,14.859830723953246C7.735423600845337,14.859830723953246,8.484563600845338,13.560210723953247,8.484563600845338,13.560210723953247C8.484563600845338,13.560210723953247,8.484563600845338,13.560210723953247,8.484563600845338,13.560210723953247ZM8.485463600845337,10.449230723953246C8.485463600845337,10.449230723953246,12.635483600845337,8.049230723953247,12.635483600845337,8.049230723953247C12.635483600845337,8.049230723953247,11.884553600845337,6.750730723953247,11.884553600845337,6.750730723953247C11.884553600845337,6.750730723953247,7.734523600845337,9.150730723953247,7.734523600845337,9.150730723953247C7.734523600845337,9.150730723953247,8.485463600845337,10.449230723953246,8.485463600845337,10.449230723953246C8.485463600845337,10.449230723953246,8.485463600845337,10.449230723953246,8.485463600845337,10.449230723953246ZM12.634313600845337,8.049910723953246C12.634313600845337,8.049910723953246,16.784293600845338,5.659920723953247,16.784293600845338,5.659920723953247C16.784293600845338,5.659920723953247,16.035713600845337,4.360071723953247,16.035713600845337,4.360071723953247C16.035713600845337,4.360071723953247,11.885723600845337,6.750060723953247,11.885723600845337,6.750060723953247C11.885723600845337,6.750060723953247,12.634313600845337,8.049910723953246,12.634313600845337,8.049910723953246C12.634313600845337,8.049910723953246,12.634313600845337,8.049910723953246,12.634313600845337,8.049910723953246ZM16.784593600845337,5.659760723953247C17.987593600845337,4.966280723953247,19.489993600845338,5.830550723953247,19.489993600845338,7.219990723953247C19.489993600845338,7.219990723953247,20.989993600845338,7.219990723953247,20.989993600845338,7.219990723953247C20.989993600845338,4.669430723953247,18.232493600845338,3.093709723953247,16.035443600845337,4.3602327239532475C16.035443600845337,4.3602327239532475,16.784593600845337,5.659760723953247,16.784593600845337,5.659760723953247C16.784593600845337,5.659760723953247,16.784593600845337,5.659760723953247,16.784593600845337,5.659760723953247Z" fill="#292D32" fill-opacity="1"/></g><g><path d="M3.010009765625,18.18000732421875C3.010009765625,18.59420732421875,3.345795765625,18.93000732421875,3.760009765625,18.93000732421875C4.174219765625,18.93000732421875,4.510009765625,18.59420732421875,4.510009765625,18.18000732421875C4.510009765625,18.18000732421875,3.010009765625,18.18000732421875,3.010009765625,18.18000732421875C3.010009765625,18.18000732421875,3.010009765625,18.18000732421875,3.010009765625,18.18000732421875ZM4.510009765625,5.82000732421875C4.510009765625,5.40579332421875,4.174219765625,5.07000732421875,3.760009765625,5.07000732421875C3.345795765625,5.07000732421875,3.010009765625,5.40579332421875,3.010009765625,5.82000732421875C3.010009765625,5.82000732421875,4.510009765625,5.82000732421875,4.510009765625,5.82000732421875C4.510009765625,5.82000732421875,4.510009765625,5.82000732421875,4.510009765625,5.82000732421875ZM4.510009765625,18.18000732421875C4.510009765625,18.18000732421875,4.510009765625,5.82000732421875,4.510009765625,5.82000732421875C4.510009765625,5.82000732421875,3.010009765625,5.82000732421875,3.010009765625,5.82000732421875C3.010009765625,5.82000732421875,3.010009765625,18.18000732421875,3.010009765625,18.18000732421875C3.010009765625,18.18000732421875,4.510009765625,18.18000732421875,4.510009765625,18.18000732421875C4.510009765625,18.18000732421875,4.510009765625,18.18000732421875,4.510009765625,18.18000732421875Z" fill="#292D32" fill-opacity="1"/></g></g><g transform="matrix(-1,0,0,-1,48,47.999998569488525)" style="opacity:0;"></g></g></g></g></svg>