<svg xmlns="http://www.w3.org/2000/svg" xmlns:xlink="http://www.w3.org/1999/xlink" fill="none" version="1.1" width="24" height="24" viewBox="0 0 24 24"><g><g><g><g><g><path d="M7.589999765625,19.000030723953245C7.589999765625,19.000030723953245,7.215699765625,18.35013072395325,7.215699765625,18.35013072395325C7.215699765625,18.35013072395325,7.215429765625,18.350230723953246,7.215429765625,18.350230723953246C7.215429765625,18.350230723953246,7.589999765625,19.000030723953245,7.589999765625,19.000030723953245C7.589999765625,19.000030723953245,7.589999765625,19.000030723953245,7.589999765625,19.000030723953245ZM11.739989765625,16.610030723953248C11.739989765625,16.610030723953248,12.114289765625,17.259930723953246,12.114289765625,17.259930723953246C12.114289765625,17.259930723953246,12.115459765625,17.259230723953245,12.115459765625,17.259230723953245C12.115459765625,17.259230723953245,11.739989765625,16.610030723953248,11.739989765625,16.610030723953248C11.739989765625,16.610030723953248,11.739989765625,16.610030723953248,11.739989765625,16.610030723953248ZM15.890009765625,14.209930723953248C15.890009765625,14.209930723953248,15.515409765625,13.560210723953247,15.515409765625,13.560210723953247C15.515409765625,13.560210723953247,15.514509765625,13.560730723953247,15.514509765625,13.560730723953247C15.514509765625,13.560730723953247,15.890009765625,14.209930723953248,15.890009765625,14.209930723953248C15.890009765625,14.209930723953248,15.890009765625,14.209930723953248,15.890009765625,14.209930723953248ZM15.890009765625,9.799980723953247C15.890009765625,9.799980723953247,15.514509765625,10.449230723953246,15.514509765625,10.449230723953246C15.514509765625,10.449230723953246,15.515409765625,10.449740723953248,15.515409765625,10.449740723953248C15.515409765625,10.449740723953248,15.890009765625,9.799980723953247,15.890009765625,9.799980723953247C15.890009765625,9.799980723953247,15.890009765625,9.799980723953247,15.890009765625,9.799980723953247ZM11.739989765625,7.399980723953247C11.739989765625,7.399980723953247,12.115459765625,6.750730723953247,12.115459765625,6.750730723953247C12.115459765625,6.750730723953247,12.114279765625,6.750060723953247,12.114279765625,6.750060723953247C12.114279765625,6.750060723953247,11.739989765625,7.399980723953247,11.739989765625,7.399980723953247C11.739989765625,7.399980723953247,11.739989765625,7.399980723953247,11.739989765625,7.399980723953247ZM7.589999765625,5.010000723953247C7.589999765625,5.010000723953247,7.215429765625,5.659760723953247,7.215429765625,5.659760723953247C7.215429765625,5.659760723953247,7.215699765625,5.659920723953247,7.215699765625,5.659920723953247C7.215699765625,5.659920723953247,7.589999765625,5.010000723953247,7.589999765625,5.010000723953247C7.589999765625,5.010000723953247,7.589999765625,5.010000723953247,7.589999765625,5.010000723953247ZM3.010009765625,7.219990723953247C3.010009765625,7.219990723953247,3.010009765625,16.790030723953247,3.010009765625,16.790030723953247C3.010009765625,16.790030723953247,4.510009765625,16.790030723953247,4.510009765625,16.790030723953247C4.510009765625,16.790030723953247,4.510009765625,7.219990723953247,4.510009765625,7.219990723953247C4.510009765625,7.219990723953247,3.010009765625,7.219990723953247,3.010009765625,7.219990723953247C3.010009765625,7.219990723953247,3.010009765625,7.219990723953247,3.010009765625,7.219990723953247ZM3.010009765625,16.790030723953247C3.010009765625,19.328130723953247,5.765359765625,20.91753072395325,7.964569765625,19.649830723953247C7.964569765625,19.649830723953247,7.215429765625,18.350230723953246,7.215429765625,18.350230723953246C6.014629765625,19.04253072395325,4.510009765625,18.17203072395325,4.510009765625,16.790030723953247C4.510009765625,16.790030723953247,3.010009765625,16.790030723953247,3.010009765625,16.790030723953247C3.010009765625,16.790030723953247,3.010009765625,16.790030723953247,3.010009765625,16.790030723953247ZM7.964289765625,19.649930723953247C7.964289765625,19.649930723953247,12.114289765625,17.259930723953246,12.114289765625,17.259930723953246C12.114289765625,17.259930723953246,11.365689765625,15.960130723953247,11.365689765625,15.960130723953247C11.365689765625,15.960130723953247,7.215699765625,18.35013072395325,7.215699765625,18.35013072395325C7.215699765625,18.35013072395325,7.964289765625,19.649930723953247,7.964289765625,19.649930723953247C7.964289765625,19.649930723953247,7.964289765625,19.649930723953247,7.964289765625,19.649930723953247ZM12.115459765625,17.259230723953245C12.115459765625,17.259230723953245,16.265509765624998,14.859230723953248,16.265509765624998,14.859230723953248C16.265509765624998,14.859230723953248,15.514509765625,13.560730723953247,15.514509765625,13.560730723953247C15.514509765625,13.560730723953247,11.364519765625,15.960730723953247,11.364519765625,15.960730723953247C11.364519765625,15.960730723953247,12.115459765625,17.259230723953245,12.115459765625,17.259230723953245C12.115459765625,17.259230723953245,12.115459765625,17.259230723953245,12.115459765625,17.259230723953245ZM16.264609765625,14.859830723953246C18.465109765625,13.591180723953247,18.465109765625,10.418780723953248,16.264609765625,9.150210723953247C16.264609765625,9.150210723953247,15.515409765625,10.449740723953248,15.515409765625,10.449740723953248C16.714909765625002,11.141180723953248,16.714909765625002,12.868780723953247,15.515409765625,13.560210723953247C15.515409765625,13.560210723953247,16.264609765625,14.859830723953246,16.264609765625,14.859830723953246C16.264609765625,14.859830723953246,16.264609765625,14.859830723953246,16.264609765625,14.859830723953246ZM16.265509765624998,9.150730723953247C16.265509765624998,9.150730723953247,12.115459765625,6.750730723953247,12.115459765625,6.750730723953247C12.115459765625,6.750730723953247,11.364519765625,8.049230723953247,11.364519765625,8.049230723953247C11.364519765625,8.049230723953247,15.514509765625,10.449230723953246,15.514509765625,10.449230723953246C15.514509765625,10.449230723953246,16.265509765624998,9.150730723953247,16.265509765624998,9.150730723953247C16.265509765624998,9.150730723953247,16.265509765624998,9.150730723953247,16.265509765624998,9.150730723953247ZM12.114279765625,6.750060723953247C12.114279765625,6.750060723953247,7.964289765625,4.360071723953247,7.964289765625,4.360071723953247C7.964289765625,4.360071723953247,7.215699765625,5.659920723953247,7.215699765625,5.659920723953247C7.215699765625,5.659920723953247,11.365699765625,8.049910723953246,11.365699765625,8.049910723953246C11.365699765625,8.049910723953246,12.114279765625,6.750060723953247,12.114279765625,6.750060723953247C12.114279765625,6.750060723953247,12.114279765625,6.750060723953247,12.114279765625,6.750060723953247ZM7.964569765625,4.3602327239532475C5.767539765625,3.093709723953247,3.010009765625,4.669430723953247,3.010009765625,7.219990723953247C3.010009765625,7.219990723953247,4.510009765625,7.219990723953247,4.510009765625,7.219990723953247C4.510009765625,5.830550723953247,6.012449765625,4.966280723953247,7.215429765625,5.659760723953247C7.215429765625,5.659760723953247,7.964569765625,4.3602327239532475,7.964569765625,4.3602327239532475C7.964569765625,4.3602327239532475,7.964569765625,4.3602327239532475,7.964569765625,4.3602327239532475Z" fill="#292D32" fill-opacity="1"/></g><g><path d="M19.489990234375,18.18000732421875C19.489990234375,18.59420732421875,19.825776234375,18.93000732421875,20.239990234375,18.93000732421875C20.654200234375,18.93000732421875,20.989990234375,18.59420732421875,20.989990234375,18.18000732421875C20.989990234375,18.18000732421875,19.489990234375,18.18000732421875,19.489990234375,18.18000732421875C19.489990234375,18.18000732421875,19.489990234375,18.18000732421875,19.489990234375,18.18000732421875ZM20.989990234375,5.82000732421875C20.989990234375,5.40579332421875,20.654200234375,5.07000732421875,20.239990234375,5.07000732421875C19.825776234375,5.07000732421875,19.489990234375,5.40579332421875,19.489990234375,5.82000732421875C19.489990234375,5.82000732421875,20.989990234375,5.82000732421875,20.989990234375,5.82000732421875C20.989990234375,5.82000732421875,20.989990234375,5.82000732421875,20.989990234375,5.82000732421875ZM20.989990234375,18.18000732421875C20.989990234375,18.18000732421875,20.989990234375,5.82000732421875,20.989990234375,5.82000732421875C20.989990234375,5.82000732421875,19.489990234375,5.82000732421875,19.489990234375,5.82000732421875C19.489990234375,5.82000732421875,19.489990234375,18.18000732421875,19.489990234375,18.18000732421875C19.489990234375,18.18000732421875,20.989990234375,18.18000732421875,20.989990234375,18.18000732421875C20.989990234375,18.18000732421875,20.989990234375,18.18000732421875,20.989990234375,18.18000732421875Z" fill="#292D32" fill-opacity="1"/></g></g><g transform="matrix(-1,0,0,-1,48,47.999998569488525)" style="opacity:0;"></g></g></g></g></svg>