<svg xmlns="http://www.w3.org/2000/svg" xmlns:xlink="http://www.w3.org/1999/xlink" fill="none" version="1.1" width="24" height="24" viewBox="0 0 24 24"><g><g><g><g transform="matrix(-1,0,0,-1,47.99999952316284,47.99999809265137)" style="opacity:0;"></g><g><path d="M3.759999990463257,7.220002607116699C3.759999990463257,7.220002607116699,3.759999990463257,16.7899926071167,3.759999990463257,16.7899926071167C3.759999990463257,18.7499926071167,5.889999990463257,19.9799926071167,7.589999990463257,18.9999926071167C7.589999990463257,18.9999926071167,11.739999990463257,16.6099926071167,11.739999990463257,16.6099926071167C11.739999990463257,16.6099926071167,15.889999990463258,14.2100026071167,15.889999990463258,14.2100026071167C17.589999990463255,13.230002607116699,17.589999990463255,10.7800026071167,15.889999990463258,9.8000026071167C15.889999990463258,9.8000026071167,11.739999990463257,7.400002607116699,11.739999990463257,7.400002607116699C11.739999990463257,7.400002607116699,7.589999990463257,5.010000607116699,7.589999990463257,5.010000607116699C5.889999990463257,4.030000607116699,3.759999990463257,5.249999607116699,3.759999990463257,7.220002607116699C3.759999990463257,7.220002607116699,3.759999990463257,7.220002607116699,3.759999990463257,7.220002607116699Z" fill="#292D32" fill-opacity="1"/></g><g><path d="M20.239999532699585,18.930000171661376C19.829999532699585,18.930000171661376,19.489999532699585,18.590000171661377,19.489999532699585,18.180000171661376C19.489999532699585,18.180000171661376,19.489999532699585,5.820000171661377,19.489999532699585,5.820000171661377C19.489999532699585,5.410000171661377,19.829999532699585,5.070000171661377,20.239999532699585,5.070000171661377C20.649999532699585,5.070000171661377,20.989999532699585,5.410000171661377,20.989999532699585,5.820000171661377C20.989999532699585,5.820000171661377,20.989999532699585,18.180000171661376,20.989999532699585,18.180000171661376C20.989999532699585,18.590000171661377,20.659999532699587,18.930000171661376,20.239999532699585,18.930000171661376C20.239999532699585,18.930000171661376,20.239999532699585,18.930000171661376,20.239999532699585,18.930000171661376Z" fill="#292D32" fill-opacity="1"/></g></g></g></g></svg>