<svg xmlns="http://www.w3.org/2000/svg" xmlns:xlink="http://www.w3.org/1999/xlink" fill="none" version="1.1" width="24" height="24" viewBox="0 0 24 24"><g><g><g><g><path d="M12,19C15.866,19,19,15.866,19,12C19,8.1340101,15.866,5,12,5C8.1340101,5,5,8.1340101,5,12C5,15.866,8.1340101,19,12,19C12,19,12,19,12,19Z" fill="#292D32" fill-opacity="1"/></g><g><path d="M12,22.959999C11.45,22.959999,11,22.549999,11,22C11,22,11,21.92,11,21.92C11,21.370001,11.45,20.92,12,20.92C12.55,20.92,13,21.370001,13,21.92C13,22.469999,12.55,22.959999,12,22.959999C12,22.959999,12,22.959999,12,22.959999ZM19.139999,20.139999C18.879999,20.139999,18.629999,20.040001,18.43,19.85C18.43,19.85,18.299999,19.719999,18.299999,19.719999C17.91,19.33,17.91,18.700001,18.299999,18.309999C18.690001,17.92,19.32,17.92,19.709999,18.309999C19.709999,18.309999,19.84,18.440001,19.84,18.440001C20.23,18.83,20.23,19.459999,19.84,19.85C19.65,20.040001,19.4,20.139999,19.139999,20.139999C19.139999,20.139999,19.139999,20.139999,19.139999,20.139999ZM4.8599999,20.139999C4.5999999,20.139999,4.3499999,20.040001,4.1500001,19.85C3.76,19.459999,3.76,18.83,4.1500001,18.440001C4.1500001,18.440001,4.279999999999999,18.309999,4.279999999999999,18.309999C4.6700001,17.92,5.3000002,17.92,5.6900001,18.309999C6.0799999,18.700001,6.0799999,19.33,5.6900001,19.719999C5.6900001,19.719999,5.5599999,19.85,5.5599999,19.85C5.3699999,20.040001,5.1100001,20.139999,4.8599999,20.139999C4.8599999,20.139999,4.8599999,20.139999,4.8599999,20.139999ZM22,13C22,13,21.92,13,21.92,13C21.370001,13,20.92,12.55,20.92,12C20.92,11.45,21.370001,11,21.92,11C22.469999,11,22.959999,11.45,22.959999,12C22.959999,12.55,22.549999,13,22,13C22,13,22,13,22,13ZM2.08,13C2.08,13,2,13,2,13C1.44999999,13,1,12.55,1,12C1,11.45,1.44999999,11,2,11C2.55,11,3.04,11.45,3.04,12C3.04,12.55,2.63,13,2.08,13C2.08,13,2.08,13,2.08,13ZM19.01,5.9899998C18.75,5.9899998,18.5,5.8899999,18.299999,5.6999998C17.91,5.3099999,17.91,4.6800001,18.299999,4.29C18.299999,4.29,18.43,4.1600000999999995,18.43,4.1600000999999995C18.82,3.77,19.450001,3.77,19.84,4.1600000999999995C20.23,4.55,20.23,5.1799998,19.84,5.5700002C19.84,5.5700002,19.709999,5.6999998,19.709999,5.6999998C19.52,5.8899999,19.27,5.9899998,19.01,5.9899998C19.01,5.9899998,19.01,5.9899998,19.01,5.9899998ZM4.99,5.9899998C4.73,5.9899998,4.48,5.8899999,4.279999999999999,5.6999998C4.279999999999999,5.6999998,4.1500001,5.5599999,4.1500001,5.5599999C3.76,5.1700001,3.76,4.54,4.1500001,4.1500001C4.54,3.76,5.1700001,3.76,5.5599999,4.1500001C5.5599999,4.1500001,5.6900001,4.279999999999999,5.6900001,4.279999999999999C6.0799999,4.6700001,6.0799999,5.3000002,5.6900001,5.6900001C5.5,5.8899999,5.2399998,5.9899998,4.99,5.9899998C4.99,5.9899998,4.99,5.9899998,4.99,5.9899998ZM12,3.04C11.45,3.04,11,2.63,11,2.08C11,2.08,11,2,11,2C11,1.44999999,11.45,1,12,1C12.55,1,13,1.44999999,13,2C13,2.55,12.55,3.04,12,3.04C12,3.04,12,3.04,12,3.04Z" fill="#292D32" fill-opacity="1"/></g><g transform="matrix(-1,-1.2246469849340659e-16,1.2246469849340659e-16,-1,48,48)" style="opacity:0;"></g></g></g></g></svg>